<svg height="41" viewBox="0 0 41 41" width="41" xmlns="http://www.w3.org/2000/svg"><g fill="none" fill-rule="evenodd"><path d="m40.2641 20.868c0 11.119-9.013 20.132-20.132 20.132s-20.132-9.013-20.132-20.132 9.013-20.132 20.132-20.132 20.132 9.013 20.132 20.132" fill="#221f20"/><g fill="#fefefe"><path d="m28.834 11.3938h-6.553c-.197 0-.395.075-.546.226-.302.302-.302.791 0 1.092.151.151.349.226.546.226h4.689l-5.516 5.516c-.302.302-.302.791 0 1.092.302.302.79.302 1.092 0l5.516-5.515v4.688c0 .198.075.396.226.547.302.301.79.301 1.092 0 .151-.151.226-.349.226-.547v-6.553c0-.197-.075-.395-.226-.546s-.349-.226-.546-.226"/><path d="m11.4523 30.3199h6.553c.197 0 .395-.075.546-.226.302-.302.302-.791 0-1.092-.151-.151-.349-.226-.546-.226h-4.689l5.516-5.516c.302-.302.302-.791 0-1.092-.302-.302-.79-.302-1.092 0l-5.516 5.515v-4.688c0-.198-.075-.396-.226-.547-.302-.301-.79-.301-1.092 0-.151.151-.226.349-.226.547v6.553c0 .197.075.395.226.546s.349.226.546.226"/></g></g></svg>